<svg width="1200" height="720" viewBox="0 0 1200 720" fill="none" xmlns="http://www.w3.org/2000/svg">
  <defs>
    <linearGradient id="bg" x1="0" y1="0" x2="1200" y2="720" gradientUnits="userSpaceOnUse">
      <stop offset="0" stop-color="#E2F0EB"/>
      <stop offset="1" stop-color="#F7E4D6"/>
    </linearGradient>
  </defs>
  <rect width="1200" height="720" rx="28" fill="url(#bg)"/>
  <rect x="78" y="58" width="1044" height="604" rx="22" fill="#FCF8F2" stroke="#D4E0DB" stroke-width="3"/>
  <ellipse cx="246" cy="322" rx="88" ry="88" fill="#B2D9D1"/>
  <ellipse cx="416" cy="312" rx="86" ry="86" fill="#9CD0C7"/>
  <ellipse cx="598" cy="302" rx="94" ry="94" fill="#86C6BB"/>
  <ellipse cx="780" cy="312" rx="86" ry="86" fill="#A3D3C9"/>
  <ellipse cx="952" cy="322" rx="88" ry="88" fill="#B8DDD5"/>
  <rect x="146" y="404" width="190" height="168" rx="78" fill="#4D7B86"/>
  <rect x="322" y="396" width="190" height="176" rx="78" fill="#406A76"/>
  <rect x="504" y="390" width="190" height="182" rx="82" fill="#325763"/>
  <rect x="688" y="396" width="190" height="176" rx="78" fill="#406A76"/>
  <rect x="866" y="404" width="190" height="168" rx="78" fill="#4D7B86"/>
  <text x="600" y="142" text-anchor="middle" fill="#1F2A37" font-size="48" font-family="IBM Plex Sans, sans-serif" font-weight="700">HAIX Lab Group Photo</text>
  <text x="600" y="194" text-anchor="middle" fill="#617080" font-size="26" font-family="IBM Plex Sans, sans-serif">Replace with your uploaded lab photo</text>
</svg>
